%TF.GenerationSoftware,KiCad,Pcbnew,9.0.0*%
%TF.CreationDate,2025-04-06T00:05:41+02:00*%
%TF.ProjectId,big_muff_pi_front_plate,6269675f-6d75-4666-965f-70695f66726f,rev?*%
%TF.SameCoordinates,Original*%
%TF.FileFunction,Soldermask,Bot*%
%TF.FilePolarity,Negative*%
%FSLAX46Y46*%
G04 Gerber Fmt 4.6, Leading zero omitted, Abs format (unit mm)*
G04 Created by KiCad (PCBNEW 9.0.0) date 2025-04-06 00:05:41*
%MOMM*%
%LPD*%
G01*
G04 APERTURE LIST*
G04 Aperture macros list*
%AMFreePoly0*
4,1,23,0.500000,-0.750000,0.000000,-0.750000,0.000000,-0.745722,-0.065263,-0.745722,-0.191342,-0.711940,-0.304381,-0.646677,-0.396677,-0.554381,-0.461940,-0.441342,-0.495722,-0.315263,-0.495722,-0.250000,-0.500000,-0.250000,-0.500000,0.250000,-0.495722,0.250000,-0.495722,0.315263,-0.461940,0.441342,-0.396677,0.554381,-0.304381,0.646677,-0.191342,0.711940,-0.065263,0.745722,0.000000,0.745722,
0.000000,0.750000,0.500000,0.750000,0.500000,-0.750000,0.500000,-0.750000,$1*%
%AMFreePoly1*
4,1,23,0.000000,0.745722,0.065263,0.745722,0.191342,0.711940,0.304381,0.646677,0.396677,0.554381,0.461940,0.441342,0.495722,0.315263,0.495722,0.250000,0.500000,0.250000,0.500000,-0.250000,0.495722,-0.250000,0.495722,-0.315263,0.461940,-0.441342,0.396677,-0.554381,0.304381,-0.646677,0.191342,-0.711940,0.065263,-0.745722,0.000000,-0.745722,0.000000,-0.750000,-0.500000,-0.750000,
-0.500000,0.750000,0.000000,0.750000,0.000000,0.745722,0.000000,0.745722,$1*%
G04 Aperture macros list end*
%ADD10C,3.000000*%
%ADD11C,3.600000*%
%ADD12C,5.600000*%
%ADD13C,14.000000*%
%ADD14C,20.000000*%
%ADD15FreePoly0,90.000000*%
%ADD16FreePoly1,90.000000*%
%ADD17FreePoly0,270.000000*%
%ADD18FreePoly1,270.000000*%
G04 APERTURE END LIST*
%TO.C,JP1*%
G36*
X68750000Y-82150000D02*
G01*
X67250000Y-82150000D01*
X67250000Y-81850000D01*
X68750000Y-81850000D01*
X68750000Y-82150000D01*
G37*
%TO.C,JP4*%
G36*
X89250000Y-107850000D02*
G01*
X90750000Y-107850000D01*
X90750000Y-108150000D01*
X89250000Y-108150000D01*
X89250000Y-107850000D01*
G37*
%TO.C,JP2*%
G36*
X90750000Y-82150000D02*
G01*
X89250000Y-82150000D01*
X89250000Y-81850000D01*
X90750000Y-81850000D01*
X90750000Y-82150000D01*
G37*
%TO.C,JP3*%
G36*
X112750000Y-82150000D02*
G01*
X111250000Y-82150000D01*
X111250000Y-81850000D01*
X112750000Y-81850000D01*
X112750000Y-82150000D01*
G37*
%TD*%
D10*
%TO.C,H9*%
X106000000Y-117000000D03*
%TD*%
D11*
%TO.C,H3*%
X55000000Y-145000000D03*
D12*
X55000000Y-145000000D03*
%TD*%
D13*
%TO.C,H6*%
X90000000Y-69000000D03*
%TD*%
%TO.C,H7*%
X112000000Y-69000000D03*
%TD*%
D11*
%TO.C,H4*%
X125000000Y-145000000D03*
D12*
X125000000Y-145000000D03*
%TD*%
D13*
%TO.C,H5*%
X68000000Y-69000000D03*
%TD*%
D14*
%TO.C,H8*%
X90000000Y-125000000D03*
%TD*%
D11*
%TO.C,H1*%
X55000000Y-55000000D03*
D12*
X55000000Y-55000000D03*
%TD*%
D10*
%TO.C,H10*%
X74000000Y-117000000D03*
%TD*%
D11*
%TO.C,H2*%
X125000000Y-55000000D03*
D12*
X125000000Y-55000000D03*
%TD*%
D11*
%TO.C,H11*%
X90000000Y-145000000D03*
D12*
X90000000Y-145000000D03*
%TD*%
D15*
%TO.C,JP1*%
X68000000Y-82650000D03*
D16*
X68000000Y-81350000D03*
%TD*%
D17*
%TO.C,JP4*%
X90000000Y-107350000D03*
D18*
X90000000Y-108650000D03*
%TD*%
D15*
%TO.C,JP2*%
X90000000Y-82650000D03*
D16*
X90000000Y-81350000D03*
%TD*%
D15*
%TO.C,JP3*%
X112000000Y-82650000D03*
D16*
X112000000Y-81350000D03*
%TD*%
M02*
